<svg xmlns="http://www.w3.org/2000/svg" viewBox="0 0 64 64" id="wow-emotion-face"><path fill="#ff9478" d="M13 29h.03c.82-.02 17.91-.57 25.87-7a11.379 11.379 0 0 0 1.1-.97v.01a9.928 9.928 0 0 0 .48 1.04c1.13 2.16 5.32 6.9 11.49 6.92H53a2 2 0 0 1 1 .27V25a22 22 0 0 0-44 0v4.27a2 2 0 0 1 1-.27Z"></path><path fill="#ffdaaa" d="M40.48 22.08a9.928 9.928 0 0 1-.48-1.04v-.01a11.379 11.379 0 0 1-1.1.97c-7.96 6.43-25.05 6.98-25.87 7a3.44 3.44 0 0 0-.03.46V42a19.023 19.023 0 0 0 19.72 18.99C43.01 60.6 51 51.83 51 41.54V29h.97c-6.17-.02-10.36-4.76-11.49-6.92Z"></path><path fill="#ffc477" d="M54 29.27a2 2 0 0 0-1-.27h-2v10h2a2.006 2.006 0 0 0 2-2v-6a2 2 0 0 0-1-1.73zM13.03 29H11a2 2 0 0 0-2 2v6a2.006 2.006 0 0 0 2 2h2v-9.54a3.44 3.44 0 0 1 .03-.46z"></path><ellipse cx="32" cy="48" fill="#ff7956" rx="4" ry="5"></ellipse><path fill="#2d2d30" d="M55 28.788V25a23 23 0 0 0-46 0v3.788A2.955 2.955 0 0 0 8 31v6a3 3 0 0 0 3 3h1v2a20.026 20.026 0 0 0 19.994 20c.253 0 .509 0 .764-.014C43.368 61.587 52 52.414 52 41.54V40h1a3 3 0 0 0 3-3v-6a2.957 2.957 0 0 0-1-2.212ZM11 25a21 21 0 1 1 42 0v3h-1.027c-5.943-.019-9.744-4.733-10.608-6.386a9.332 9.332 0 0 1-.406-.868 1 1 0 0 0-1.667-.423 10.3 10.3 0 0 1-1.02.9C30.5 27.5 13.18 28 13.006 28H11Zm-1 12v-6a1 1 0 0 1 .506-.867A.983.983 0 0 1 11 30h1v8h-1a1 1 0 0 1-1-1Zm40 4.54c0 9.812-7.769 18.089-17.317 18.451A18.025 18.025 0 0 1 14 42V29.962c3.845-.19 18.223-1.282 25.51-7.17.052-.039.1-.079.153-.12A15.335 15.335 0 0 0 50 29.838v11.7ZM54 37a1 1 0 0 1-1 1h-1v-8h1a1.006 1.006 0 0 1 1 1Z"></path><path fill="#2d2d30" d="M27.535 35.122 25.414 33l2.121-2.122-1.414-1.414L24 31.586l-2.121-2.122-1.414 1.414L22.586 33l-2.121 2.122 1.414 1.414L24 34.414l2.121 2.122 1.414-1.414zM42.121 29.464 40 31.586l-2.121-2.122-1.414 1.414L38.586 33l-2.121 2.122 1.414 1.414L40 34.414l2.121 2.122 1.414-1.414L41.414 33l2.121-2.122-1.414-1.414zM32 42c-2.757 0-5 2.691-5 6s2.243 6 5 6 5-2.691 5-6-2.243-6-5-6Zm0 10c-1.654 0-3-1.794-3-4s1.346-4 3-4 3 1.794 3 4-1.346 4-3 4Z"></path></svg>