<svg xmlns="http://www.w3.org/2000/svg" viewBox="0 0 64 64" id="discontent-emotion-face"><path fill="#ffdaaa" d="M13 20v22a19.023 19.023 0 0 0 19.72 18.99C43.01 60.6 51 51.83 51 41.54V20Z"></path><path fill="#ffc477" d="M13 27v3s22-1 27-9c0 0 1 7.051 11 9v-3l-11-7Z"></path><path fill="#f7bf75" d="M54 29.27a2 2 0 0 0-1-.27l-2-1v11h2a2.006 2.006 0 0 0 2-2v-6a2 2 0 0 0-1-1.73Z"></path><path fill="#ff9478" d="M54 25v4.27a2 2 0 0 0-1-.27h-1.03c-.33 0-.65-.02-.97-.05a14.126 14.126 0 0 1-10.52-6.87 9.928 9.928 0 0 1-.48-1.04v-.01a11.379 11.379 0 0 1-1.1.97c-7.96 6.43-25.05 6.98-25.87 7H11a2 2 0 0 0-1 .27V25a22 22 0 1 1 44 0Z"></path><path fill="#f7bf75" d="M13 29h-2a2 2 0 0 0-2 2v6a2.006 2.006 0 0 0 2 2h2Z"></path><path fill="#ff6243" d="M23 35a2 2 0 1 0-2-2 2 2 0 0 0 2 2zm18 0a2 2 0 1 0-2-2 2 2 0 0 0 2 2z"></path><path fill="#ff7956" d="m20.009 45.9.347-1.969L43.991 48.1l-.347 1.97z"></path></svg>