<svg xmlns="http://www.w3.org/2000/svg" fill-rule="evenodd" stroke-linejoin="round" stroke-miterlimit="2" clip-rule="evenodd" viewBox="0 0 512 512" id="robot-sleep-style-two"><path d="M2415.25,262.081C2417.52,271.683 2426.14,278.838 2436.43,278.838L2462.13,278.838C2463.06,284.268 2465.49,289.189 2468.98,293.162L2431.07,293.162C2421.6,293.162 2413.01,296.955 2406.74,303.105C2405.51,302.794 2404.23,302.627 2402.91,302.622C2367.5,302.486 2344.69,295.803 2331.22,278.863C2329.51,276.703 2326.36,276.343 2324.2,278.06C2322.04,279.777 2321.68,282.925 2323.39,285.085C2338.01,303.468 2362.15,312.026 2399.86,312.593C2398.11,316.146 2396.95,320.038 2396.5,324.144C2356.04,323.011 2330.26,312.398 2314.3,292.317C2299.71,273.97 2293.27,247.105 2291.96,211.182C2293.82,211.944 2295.86,212.364 2298,212.364C2300.09,212.364 2302.09,211.961 2303.92,211.23C2304.71,235.566 2307.68,255.326 2314.68,270.7C2315.83,273.211 2318.79,274.322 2321.3,273.178C2323.82,272.034 2324.93,269.067 2323.78,266.555C2316.16,249.808 2313.86,227.5 2313.71,199.427C2313.8,198.948 2313.87,198.463 2313.92,197.971C2327.52,191.877 2337,178.219 2337,162.364C2337,159.604 2334.76,157.364 2332,157.364C2329.24,157.364 2327,159.604 2327,162.364C2327,173.448 2320.77,183.089 2311.62,187.969C2308.8,183.407 2303.75,180.364 2298,180.364C2292.25,180.364 2287.2,183.407 2284.38,187.969C2275.23,183.089 2269,173.448 2269,162.364C2269,159.604 2266.76,157.364 2264,157.364C2261.24,157.364 2259,159.604 2259,162.364C2259,178.087 2268.33,191.65 2281.74,197.817C2281.72,198.029 2281.7,198.244 2281.7,198.462C2281.91,243.715 2289.11,276.701 2306.47,298.54C2322.7,318.953 2347.96,331.074 2387,333.703L2358.87,333.703C2349.09,333.703 2341.16,341.635 2341.16,351.405C2341.16,359.44 2346.53,366.231 2353.87,368.391L2353.87,402.046C2353.87,404.808 2356.1,407.046 2358.87,407.046L2360.67,407.046C2360.03,408.83 2359.68,410.753 2359.68,412.757C2359.68,412.757 2359.68,420.673 2359.68,420.673C2350.07,422.935 2342.92,431.564 2342.92,441.851L2342.92,455.014C2342.92,465.301 2350.07,473.93 2359.68,476.192L2359.68,484.108C2359.68,493.431 2367.24,501 2376.57,501L2454.95,501C2464.27,501 2471.84,493.431 2471.84,484.108C2471.84,484.108 2471.84,458.838 2471.84,458.838L2487.11,458.838L2487.11,460.27C2487.11,466.312 2492.01,471.216 2498.05,471.216L2509.95,471.216C2515.99,471.216 2520.89,466.312 2520.89,460.27L2520.89,458.838L2536.16,458.838L2536.16,484.108C2536.16,484.108 2536.16,484.163 2536.16,484.163C2536.17,486.07 2536.49,487.97 2537.14,489.768C2537.67,491.262 2538.41,492.679 2539.34,493.967C2540.32,495.324 2541.5,496.536 2542.83,497.551C2544.32,498.688 2546,499.575 2547.79,500.161C2549.48,500.718 2551.27,501 2553.05,501C2579.18,501 2605.31,501 2631.43,501C2633.22,501 2635,500.718 2636.7,500.161C2638.42,499.597 2640.04,498.752 2641.5,497.673C2642.88,496.644 2644.11,495.404 2645.12,494.008C2646.07,492.696 2646.83,491.247 2647.37,489.719C2648,487.919 2648.32,486.016 2648.32,484.108L2648.32,476.192L2648.37,476.182C2650.39,475.697 2652.35,474.925 2654.15,473.886C2655.87,472.897 2657.45,471.671 2658.84,470.256C2660.22,468.855 2661.41,467.27 2662.36,465.553C2663.47,463.553 2664.26,461.377 2664.69,459.13C2664.95,457.774 2665.08,456.394 2665.08,455.014C2665.08,450.626 2665.08,446.239 2665.08,441.851C2665.08,439.618 2664.74,437.386 2664.06,435.257C2663.29,432.827 2662.08,430.539 2660.52,428.525C2658.77,426.27 2656.57,424.363 2654.09,422.946C2652.3,421.924 2650.37,421.163 2648.37,420.683L2648.32,420.673L2648.32,412.757C2648.32,410.753 2647.97,408.83 2647.33,407.046L2649.14,407.046C2651.9,407.046 2654.14,404.808 2654.14,402.046L2654.14,368.391C2661.47,366.231 2666.84,359.44 2666.84,351.405C2666.84,341.635 2658.91,333.703 2649.14,333.703L2621,333.703C2660.04,331.074 2685.3,318.953 2701.53,298.54C2703.25,296.38 2702.89,293.232 2700.73,291.515C2698.57,289.797 2695.42,290.157 2693.7,292.317C2677.74,312.398 2651.96,323.011 2611.5,324.144C2611.05,320.038 2609.89,316.145 2608.14,312.593C2645.85,312.026 2669.99,303.468 2684.61,285.085C2697.93,268.323 2703,243.873 2704.07,211.229C2705.91,211.961 2707.91,212.364 2710,212.364C2712.14,212.364 2714.18,211.944 2716.04,211.183C2714.97,240.153 2710.55,263.247 2701.23,280.766C2699.93,283.202 2700.86,286.232 2703.29,287.528C2705.73,288.824 2708.76,287.898 2710.05,285.462C2721.31,264.299 2726.12,235.496 2726.3,198.462C2726.3,198.244 2726.28,198.029 2726.26,197.817C2739.68,191.65 2749,178.087 2749,162.364C2749,159.604 2746.76,157.364 2744,157.364C2741.24,157.364 2739,159.604 2739,162.364C2739,173.448 2732.77,183.089 2723.62,187.969C2720.8,183.407 2715.75,180.364 2710,180.364C2704.25,180.364 2699.2,183.407 2696.38,187.969C2687.23,183.089 2681,173.448 2681,162.364C2681,159.604 2678.76,157.364 2676,157.364C2673.24,157.364 2671,159.604 2671,162.364C2671,178.219 2680.48,191.877 2694.08,197.971C2694.13,198.463 2694.2,198.949 2694.29,199.427C2694.1,235.162 2690.56,261.528 2676.78,278.863C2663.31,295.803 2640.5,302.486 2605.09,302.622C2603.77,302.627 2602.49,302.794 2601.26,303.104C2594.99,296.955 2586.4,293.162 2576.93,293.162L2539.02,293.162C2542.51,289.189 2544.94,284.268 2545.87,278.838L2571.57,278.838C2581.86,278.838 2590.48,271.683 2592.75,262.081L2605.77,262.081C2621.58,262.081 2634.41,249.252 2634.41,233.45L2634.41,178.8L2634.45,178.79C2636.45,178.31 2638.39,177.549 2640.17,176.527C2642.65,175.11 2644.85,173.203 2646.6,170.948C2648.16,168.934 2649.37,166.646 2650.14,164.216C2650.82,162.087 2651.16,159.855 2651.16,157.622C2651.16,143.568 2651.16,129.514 2651.16,115.459C2651.16,113.226 2650.82,110.994 2650.14,108.865C2649.37,106.435 2648.16,104.148 2646.6,102.134C2644.85,99.878 2642.65,97.971 2640.17,96.554C2638.39,95.532 2636.45,94.771 2634.45,94.291L2634.41,94.281L2634.41,70.269C2634.41,67.509 2632.16,65.269 2629.41,65.269C2626.65,65.269 2624.41,67.509 2624.41,70.269L2624.41,233.45C2624.41,243.733 2616.06,252.081 2605.77,252.081C2605.77,252.081 2402.23,252.081 2402.23,252.081C2391.94,252.081 2383.6,243.733 2383.6,233.45L2383.6,220.323C2383.6,217.564 2381.35,215.323 2378.6,215.323C2375.84,215.323 2373.6,217.564 2373.6,220.323L2373.6,233.45C2373.6,249.252 2386.42,262.081 2402.23,262.081L2415.25,262.081ZM2638.32,476.533C2636.22,477.476 2633.89,478 2631.43,478C2631.43,478 2553.05,478 2553.05,478C2550.6,478 2548.27,477.476 2546.16,476.533L2546.16,484.108C2546.16,487.912 2549.25,491 2553.05,491C2553.05,491 2631.43,491 2631.43,491C2635.24,491 2638.32,487.912 2638.32,484.108L2638.32,476.533ZM2369.68,452.533L2369.68,461.108C2369.68,464.912 2372.76,468 2376.57,468L2386.18,468C2388.94,468 2391.18,470.24 2391.18,473C2391.18,475.76 2388.94,478 2386.18,478C2386.18,478 2376.57,478 2376.57,478C2374.11,478 2371.78,477.476 2369.68,476.533L2369.68,484.108L2369.68,484.153C2369.68,484.959 2369.83,485.76 2370.11,486.516C2370.53,487.647 2371.25,488.657 2372.18,489.425C2372.85,489.975 2373.62,490.398 2374.44,490.664C2375.13,490.887 2375.85,491 2376.57,491C2402.69,491 2428.82,491 2454.95,491C2455.67,491 2456.39,490.887 2457.08,490.664C2457.9,490.398 2458.66,489.975 2459.33,489.425C2460.26,488.657 2460.98,487.647 2461.41,486.516C2461.69,485.76 2461.83,484.959 2461.84,484.153L2461.84,484.108L2461.84,476.533C2459.73,477.476 2457.4,478 2454.95,478L2402.18,478C2399.42,478 2397.18,475.76 2397.18,473C2397.18,470.24 2399.42,468 2402.18,468L2454.95,468C2457.43,468 2459.62,466.676 2460.83,464.698C2461.11,464.241 2461.45,463.845 2461.84,463.514L2461.84,452.533C2459.73,453.476 2457.4,454 2454.95,454C2454.95,454 2376.57,454 2376.57,454C2374.11,454 2371.78,453.476 2369.68,452.533ZM2638.32,428.181C2636.22,429.124 2633.89,429.649 2631.43,429.649C2631.43,429.649 2553.05,429.649 2553.05,429.649C2550.6,429.649 2548.27,429.124 2546.16,428.182L2546.16,439.514C2546.55,439.845 2546.89,440.241 2547.17,440.698C2548.38,442.676 2550.57,444 2553.05,444L2595.55,444C2598.31,444 2600.55,446.24 2600.55,449C2600.55,451.76 2598.31,454 2595.55,454C2595.55,454 2553.05,454 2553.05,454C2550.6,454 2548.27,453.476 2546.16,452.533L2546.16,463.514C2546.55,463.845 2546.89,464.241 2547.17,464.698C2548.38,466.676 2550.57,468 2553.05,468L2631.43,468C2635.24,468 2638.32,464.912 2638.32,461.108L2638.32,452.533C2636.22,453.476 2633.89,454 2631.43,454L2615.55,454C2612.79,454 2610.55,451.76 2610.55,449C2610.55,446.24 2612.79,444 2615.55,444L2631.43,444C2635.24,444 2638.32,440.912 2638.32,437.108L2638.32,428.181ZM2648.32,431.209L2648.32,465.655C2652.32,463.775 2655.08,459.715 2655.08,455.014L2655.08,441.851C2655.08,437.15 2652.32,433.09 2648.32,431.209ZM2359.64,431.224C2358.73,431.663 2357.87,432.214 2357.09,432.871C2355.41,434.295 2354.14,436.187 2353.47,438.288C2353.1,439.438 2352.92,440.644 2352.92,441.851C2352.92,446.239 2352.92,450.626 2352.92,455.014C2352.92,456.076 2353.06,457.137 2353.35,458.161C2353.65,459.241 2354.1,460.277 2354.7,461.229C2355.35,462.267 2356.16,463.203 2357.09,463.994C2357.87,464.651 2358.73,465.202 2359.64,465.641L2359.68,465.655L2359.68,431.209L2359.64,431.224ZM2510.89,431.676L2510.89,460.27C2510.89,460.792 2510.47,461.216 2509.95,461.216C2509.95,461.216 2498.05,461.216 2498.05,461.216C2497.53,461.216 2497.11,460.792 2497.11,460.27L2497.11,431.676C2497.11,431.154 2497.53,430.73 2498.05,430.73C2498.05,430.73 2509.95,430.73 2509.95,430.73C2510.47,430.73 2510.89,431.154 2510.89,431.676ZM2520.89,441.541L2520.89,448.838L2536.16,448.838L2536.16,441.541L2520.89,441.541ZM2471.84,441.541L2471.84,448.838L2487.11,448.838L2487.11,441.541L2471.84,441.541ZM2461.84,415.162L2461.84,407.046L2372.71,407.046C2370.88,408.287 2369.68,410.382 2369.68,412.757C2369.68,416.56 2372.76,419.649 2376.57,419.649L2424.43,419.649C2427.19,419.649 2429.43,421.889 2429.43,424.649C2429.43,427.408 2427.19,429.649 2424.43,429.649C2424.43,429.649 2376.57,429.649 2376.57,429.649C2374.11,429.649 2371.78,429.124 2369.68,428.181L2369.68,437.108C2369.68,440.912 2372.76,444 2376.57,444L2454.95,444C2457.43,444 2459.62,442.676 2460.83,440.698C2461.11,440.241 2461.45,439.845 2461.84,439.514L2461.84,428.182C2459.73,429.124 2457.4,429.649 2454.95,429.649L2440.43,429.649C2437.67,429.649 2435.43,427.408 2435.43,424.649C2435.43,421.889 2437.67,419.649 2440.43,419.649L2454.95,419.649C2457.43,419.649 2459.62,418.325 2460.83,416.347C2461.11,415.889 2461.45,415.493 2461.84,415.162ZM2520.89,431.541L2536.16,431.541L2536.16,417.757L2471.84,417.757L2471.84,431.541L2487.11,431.541C2487.18,425.561 2492.06,420.73 2498.05,420.73L2509.95,420.73C2515.94,420.73 2520.82,425.561 2520.89,431.541ZM2635.29,407.046L2546.16,407.046L2546.16,415.162C2546.55,415.493 2546.89,415.889 2547.17,416.347C2548.38,418.325 2550.57,419.649 2553.05,419.649L2631.43,419.649C2635.24,419.649 2638.32,416.56 2638.32,412.757C2638.32,410.382 2637.12,408.287 2635.29,407.046ZM2486.91,369.108L2477.65,369.108L2477.65,402.046C2477.65,404.808 2475.41,407.046 2472.65,407.046L2471.84,407.046L2471.84,407.757L2536.16,407.757L2536.16,407.046L2535.35,407.046C2532.59,407.046 2530.35,404.808 2530.35,402.046L2530.35,369.108L2521.09,369.108L2508.16,388.503C2507.23,389.894 2505.67,390.73 2504,390.73C2502.33,390.73 2500.77,389.894 2499.84,388.503L2486.91,369.108ZM2644.14,369.108L2540.35,369.108L2540.35,397.046L2636.54,397.046C2636.59,397.046 2636.63,397.046 2636.68,397.046L2644.14,397.046L2644.14,369.108ZM2469.97,343.703L2358.87,343.703C2354.61,343.703 2351.16,347.154 2351.16,351.405C2351.16,355.657 2354.61,359.108 2358.87,359.108L2386.18,359.108C2388.94,359.108 2391.18,361.349 2391.18,364.108C2391.18,366.868 2388.94,369.108 2386.18,369.108L2363.87,369.108L2363.87,397.046L2371.32,397.046C2371.37,397.046 2371.41,397.046 2371.46,397.046L2467.65,397.046L2467.65,369.108L2402.18,369.108C2399.42,369.108 2397.18,366.868 2397.18,364.108C2397.18,361.349 2399.42,359.108 2402.18,359.108L2480.24,359.108L2469.97,343.703ZM2576.93,303.162L2431.07,303.162C2417.4,303.162 2406.3,314.263 2406.3,327.936L2406.3,333.703L2467.65,333.703L2467.65,323.027C2467.65,320.266 2469.89,318.027 2472.65,318.027L2504,318.027C2506.76,318.027 2509,320.267 2509,323.027C2509,325.787 2506.76,328.027 2504,328.027C2504,328.027 2477.65,328.027 2477.65,328.027C2477.65,328.027 2477.65,337.189 2477.65,337.189C2477.65,337.189 2504,376.716 2504,376.716C2504,376.716 2530.35,337.189 2530.35,337.189C2530.35,337.189 2530.35,328.027 2530.35,328.027L2521,328.027C2518.24,328.027 2516,325.787 2516,323.027C2516,320.267 2518.24,318.027 2521,318.027L2535.35,318.027C2538.11,318.027 2540.35,320.266 2540.35,323.027L2540.35,333.703L2601.7,333.703L2601.7,327.936C2601.7,321.951 2599.58,316.459 2596.04,312.176C2591.49,306.673 2584.62,303.162 2576.93,303.162ZM2649.14,343.703L2538.03,343.703L2527.76,359.108L2649.14,359.108C2653.39,359.108 2656.84,355.657 2656.84,351.405C2656.84,347.154 2653.39,343.703 2649.14,343.703ZM2535.64,278.838L2472.36,278.838C2474.56,287.083 2482.09,293.162 2491.03,293.162L2516.97,293.162C2525.91,293.162 2533.44,287.083 2535.64,278.838ZM2582.21,262.081L2425.79,262.081L2425.8,262.112C2426.24,263.029 2426.8,263.889 2427.45,264.666C2428.24,265.601 2429.18,266.412 2430.22,267.06C2431.17,267.654 2432.2,268.111 2433.28,268.411C2434.31,268.695 2435.37,268.838 2436.43,268.838C2481.48,268.838 2526.52,268.838 2571.57,268.838C2572.63,268.838 2573.69,268.695 2574.72,268.411C2575.8,268.111 2576.83,267.654 2577.78,267.06C2578.82,266.412 2579.76,265.601 2580.55,264.666C2581.2,263.889 2581.76,263.029 2582.2,262.112L2582.21,262.081ZM2373.6,93.853C2362.8,95.124 2354.41,104.32 2354.41,115.459L2354.41,157.622C2354.41,168.761 2362.8,177.957 2373.6,179.228L2373.6,204.323C2373.6,207.083 2375.84,209.323 2378.6,209.323C2381.35,209.323 2383.6,207.083 2383.6,204.323L2383.6,39.631C2383.6,29.348 2391.94,21 2402.23,21C2402.23,21 2415.58,21 2415.58,21C2418.34,21 2420.58,18.76 2420.58,16C2420.58,13.24 2418.34,11 2415.58,11L2402.23,11C2386.42,11 2373.6,23.829 2373.6,39.631L2373.6,93.853ZM2558.22,189.421C2558.22,179.814 2550.42,172.015 2540.81,172.015C2540.81,172.015 2469.86,172.015 2469.86,172.015C2460.26,172.015 2452.45,179.814 2452.45,189.421C2452.45,199.028 2460.26,206.827 2469.86,206.827C2469.86,206.827 2540.81,206.827 2540.81,206.827C2550.42,206.827 2558.22,199.028 2558.22,189.421ZM2704.27,198.161C2705.04,200.596 2707.32,202.364 2710,202.364C2713.31,202.364 2716,199.675 2716,196.364C2716,193.052 2713.31,190.364 2710,190.364C2706.69,190.364 2704,193.052 2704,196.364C2704,196.597 2704.01,196.827 2704.04,197.054C2704.16,197.407 2704.24,197.778 2704.27,198.161ZM2303.96,197.054C2303.99,196.827 2304,196.597 2304,196.364C2304,193.052 2301.31,190.364 2298,190.364C2294.69,190.364 2292,193.052 2292,196.364C2292,199.675 2294.69,202.364 2298,202.364C2300.68,202.364 2302.96,200.596 2303.73,198.161C2303.76,197.778 2303.84,197.407 2303.96,197.054ZM2548.22,189.421C2548.22,193.509 2544.9,196.827 2540.81,196.827L2469.86,196.827C2465.77,196.827 2462.45,193.509 2462.45,189.421C2462.45,185.333 2465.77,182.015 2469.86,182.015L2540.81,182.015C2544.9,182.015 2548.22,185.333 2548.22,189.421ZM2545.74,152.382C2543.92,152.717 2542.43,154.032 2541.87,155.801C2541.32,157.57 2541.78,159.501 2543.09,160.818C2543.09,160.818 2550.26,168.06 2557.15,173.219C2560.51,175.739 2563.86,177.74 2566.43,178.549C2573.98,180.922 2582.03,176.72 2584.41,169.173C2586.78,161.625 2582.58,153.571 2575.03,151.198C2572.46,150.39 2568.57,150.114 2564.37,150.257C2555.77,150.549 2545.74,152.382 2545.74,152.382ZM2557.7,160.776C2558.88,160.649 2560.1,160.534 2561.32,160.441C2565.42,160.131 2569.57,159.965 2572.03,160.738C2574.32,161.456 2575.59,163.891 2574.87,166.174C2574.15,168.456 2571.72,169.727 2569.43,169.009C2566.97,168.236 2563.66,165.722 2560.48,163.124C2559.53,162.348 2558.59,161.555 2557.7,160.776ZM2373.58,103.988C2372.48,104.238 2371.42,104.641 2370.44,105.191C2369.06,105.962 2367.84,107.011 2366.87,108.258C2366.01,109.366 2365.35,110.626 2364.93,111.965C2364.58,113.095 2364.41,114.277 2364.41,115.459C2364.41,129.514 2364.41,143.568 2364.41,157.622C2364.41,158.805 2364.58,159.986 2364.93,161.116C2365.35,162.455 2366.01,163.715 2366.87,164.823C2367.84,166.07 2369.06,167.119 2370.44,167.89C2371.42,168.44 2372.48,168.843 2373.58,169.093L2373.6,169.097L2373.6,103.984L2373.58,103.988ZM2634.41,104.818L2634.41,168.264C2638.4,166.383 2641.16,162.323 2641.16,157.622L2641.16,115.459C2641.16,110.758 2638.4,106.698 2634.41,104.818ZM2437.51,118.428C2437.51,129.761 2446.71,138.961 2458.04,138.961C2469.37,138.961 2478.57,129.761 2478.57,118.428C2478.57,115.669 2476.33,113.428 2473.57,113.428C2470.81,113.428 2468.57,115.669 2468.57,118.428C2468.57,124.242 2463.85,128.961 2458.04,128.961C2452.22,128.961 2447.51,124.242 2447.51,118.428C2447.51,115.669 2445.26,113.428 2442.51,113.428C2439.75,113.428 2437.51,115.669 2437.51,118.428ZM2532.1,118.428C2532.1,129.761 2541.3,138.961 2552.63,138.961C2563.97,138.961 2573.17,129.761 2573.17,118.428C2573.17,115.669 2570.93,113.428 2568.17,113.428C2565.41,113.428 2563.17,115.669 2563.17,118.428C2563.17,124.242 2558.45,128.961 2552.63,128.961C2546.82,128.961 2542.1,124.242 2542.1,118.428C2542.1,115.669 2539.86,113.428 2537.1,113.428C2534.34,113.428 2532.1,115.669 2532.1,118.428ZM2464.42,88.525C2442.49,86.802 2422.95,94.323 2411.64,109.433C2409.98,111.642 2410.43,114.778 2412.64,116.432C2414.85,118.086 2417.99,117.635 2419.64,115.426C2429.03,102.88 2445.42,97.064 2463.63,98.494C2466.39,98.711 2468.79,96.652 2469.01,93.901C2469.23,91.15 2467.17,88.741 2464.42,88.525ZM2544.37,98.494C2562.58,97.064 2578.97,102.88 2588.36,115.426C2590.01,117.635 2593.15,118.086 2595.36,116.432C2597.57,114.778 2598.02,111.642 2596.36,109.433C2585.05,94.323 2565.51,86.802 2543.58,88.525C2540.83,88.741 2538.77,91.15 2538.99,93.901C2539.21,96.652 2541.62,98.711 2544.37,98.494ZM2634.41,52.269L2634.41,39.631C2634.41,23.829 2621.58,11 2605.77,11L2432.58,11C2429.82,11 2427.58,13.24 2427.58,16C2427.58,18.76 2429.82,21 2432.58,21L2605.77,21C2616.06,21 2624.41,29.348 2624.41,39.631L2624.41,52.269C2624.41,55.028 2626.65,57.269 2629.41,57.269C2632.16,57.269 2634.41,55.028 2634.41,52.269Z" transform="translate(-2248)"></path></svg>